<svg aria-hidden="true" style="position: absolute; width: 0; height: 0; overflow: hidden;" version="1.1" xmlns="http://www.w3.org/2000/svg" xmlns:xlink="http://www.w3.org/1999/xlink">
<defs>
<symbol id="icon-uniE900" viewBox="0 0 32 32">
<title>uniE900</title>
<path fill="#4b4b4b" style="fill: var(--color1, #4b4b4b)" d="M31.577 12.548c-0.447-1.532-1.304-3.082-2.755-4.245-1.448-1.165-3.466-1.897-6.062-1.893-0.823 0-1.485-0.092-2.035-0.241-0.959-0.264-1.598-0.689-2.215-1.25-0.46-0.42-0.896-0.923-1.386-1.463-0.733-0.805-1.606-1.698-2.894-2.364-1.287-0.668-2.951-1.084-5.207-1.082-4.985 0.001-9.025 4.040-9.025 9.025v19.106c0 2.125 1.722 3.846 3.848 3.847h24.305c2.126-0.001 3.847-1.722 3.848-3.847v-12.607c-0-0.939-0.123-1.962-0.423-2.986zM7.784 30.020h-3.936c-0.522-0-0.986-0.209-1.328-0.55-0.341-0.343-0.55-0.806-0.55-1.328v-8.537h4.076v6.146c0 0.481 0.39 0.873 0.872 0.873h0.866v3.397zM15.557 30.020h-6.887v-3.397h0.966c0.482 0 0.872-0.391 0.872-0.873v-6.145h3.311v6.145c0 0.481 0.39 0.873 0.872 0.873h0.866v3.397zM23.33 30.020h-6.887v-3.397h0.966c0.481 0 0.872-0.391 0.872-0.873v-6.145h3.311v6.145c0 0.481 0.39 0.873 0.872 0.873h0.867v3.397zM30.031 21.055v7.087c-0 0.522-0.209 0.985-0.55 1.328-0.343 0.341-0.806 0.549-1.328 0.55h-3.936v-3.397h0.966c0.482 0 0.872-0.391 0.872-0.873v-6.145h3.976v1.45z"></path>
</symbol>
<symbol id="icon-piano" viewBox="0 0 32 32">
<title>piano</title>
<path d="M0 28v-23h31v23h-31zM6 18h-1v-12h-4v21h5v-9zM12 18h-1v-12h-3v12h-1v9h5v-9zM18 18h-1v-12h-3v12h-1v9h5v-9zM20 6v12h-1v9h5v-9h-1v-12h-3zM30 6h-4v12h-1v9h5v-21z"></path>
</symbol>
<symbol id="icon-twitter" viewBox="0 0 32 32">
<title>twitter</title>
<path d="M32 7.075c-1.175 0.525-2.444 0.875-3.769 1.031 1.356-0.813 2.394-2.1 2.887-3.631-1.269 0.75-2.675 1.3-4.169 1.594-1.2-1.275-2.906-2.069-4.794-2.069-3.625 0-6.563 2.938-6.563 6.563 0 0.512 0.056 1.012 0.169 1.494-5.456-0.275-10.294-2.888-13.531-6.862-0.563 0.969-0.887 2.1-0.887 3.3 0 2.275 1.156 4.287 2.919 5.463-1.075-0.031-2.087-0.331-2.975-0.819 0 0.025 0 0.056 0 0.081 0 3.181 2.263 5.838 5.269 6.437-0.55 0.15-1.131 0.231-1.731 0.231-0.425 0-0.831-0.044-1.237-0.119 0.838 2.606 3.263 4.506 6.131 4.563-2.25 1.762-5.075 2.813-8.156 2.813-0.531 0-1.050-0.031-1.569-0.094 2.913 1.869 6.362 2.95 10.069 2.95 12.075 0 18.681-10.006 18.681-18.681 0-0.287-0.006-0.569-0.019-0.85 1.281-0.919 2.394-2.075 3.275-3.394z"></path>
</symbol>
</defs>
</svg>
